<svg xmlns="http://www.w3.org/2000/svg" width="203" height="61" viewBox="0 0 203 61"><g fill="none" fill-rule="evenodd"><g fill-rule="nonzero"><path fill="#1C8143" d="M30.937 38.86c-1.482.808-3.115 1.404-4.898 1.83-1.783.425-3.674.616-5.672.616-6.123 0-11.021-1.872-14.695-5.618C1.998 31.943.15 26.942.15 20.685c0-3.426.559-6.47 1.676-9.172C2.943 8.81 4.62 6.512 6.853 4.597a17.762 17.762 0 0 1 6.059-3.427C15.168.404 17.66.021 20.367.021c6.102 0 11 1.873 14.695 5.64 3.696 3.766 5.522 8.768 5.522 15.024 0 2.618-.301 4.98-.924 7.108a17.825 17.825 0 0 1-2.857 5.746c1.16 1 2.406 1.787 3.76 2.383 1.353.596 2.814.958 4.382 1.128l-2.986 7.044c-2.256-.213-4.319-.766-6.166-1.66a15.406 15.406 0 0 1-4.856-3.575zm-10.57-5.81c3.18 0 5.65-1.086 7.412-3.257 1.783-2.17 2.664-5.192 2.664-9.087 0-3.894-.902-6.937-2.685-9.108-1.784-2.213-4.254-3.298-7.39-3.298-3.138 0-5.587 1.106-7.392 3.32-1.804 2.191-2.707 5.235-2.707 9.086 0 3.852.903 6.874 2.686 9.066 1.783 2.192 4.254 3.277 7.412 3.277z"/><path fill="#2B6CAD" d="M81.533 31.304c-1.912 3.363-4.319 5.874-7.176 7.555-2.879 1.681-6.209 2.511-10.033 2.511-6.016 0-10.785-1.872-14.309-5.597-3.545-3.724-5.328-8.746-5.328-15.067 0-6.192 1.848-11.193 5.543-14.981C53.925 1.937 58.78.043 64.796.043c3.782 0 7.069.85 9.862 2.553 2.793 1.703 4.963 4.171 6.51 7.406l-7.713 3.83c-.903-1.893-2.084-3.32-3.567-4.298-1.482-.979-3.2-1.468-5.156-1.468-3.05 0-5.457 1.127-7.24 3.362-1.783 2.234-2.664 5.32-2.664 9.257 0 3.958.88 7.044 2.642 9.236 1.762 2.192 4.211 3.277 7.39 3.277 1.999 0 3.718-.468 5.179-1.383 1.46-.936 2.685-2.32 3.652-4.192l7.842 3.681zm17.595 10.002c-4.79 0-8.658-1.425-11.58-4.277-2.922-2.852-4.382-6.618-4.382-11.322 0-4.66 1.46-8.448 4.404-11.321 2.943-2.873 6.789-4.299 11.58-4.299 4.834 0 8.722 1.426 11.644 4.299 2.922 2.873 4.383 6.64 4.383 11.321 0 4.682-1.482 8.449-4.426 11.3-2.943 2.874-6.81 4.3-11.623 4.3zm-6.81-15.599c0 2.682.623 4.789 1.847 6.364 1.247 1.574 2.9 2.362 4.963 2.362 2.084 0 3.739-.788 4.985-2.362 1.246-1.575 1.869-3.703 1.869-6.364 0-2.66-.623-4.788-1.848-6.384-1.246-1.575-2.9-2.362-4.984-2.362-2.063 0-3.696.809-4.942 2.405-1.267 1.596-1.89 3.724-1.89 6.341zm26.77 14.642V11.045h8.958v2.724c1.16-1.15 2.45-2 3.889-2.554 1.44-.553 3.072-.851 4.877-.851 3.222 0 5.629 1 7.197 3.022 1.568 2.021 2.363 5.107 2.363 9.278V40.35h-8.959v-17.26c0-1.978-.344-3.425-1.053-4.362-.708-.936-1.826-1.383-3.351-1.383-1.805 0-3.072.426-3.846 1.298-.773.873-1.138 2.341-1.138 4.448v17.259h-8.938z"/><path fill="#2366A9" d="M146.35 21.856c-3.029.17-6.015.319-8.958.468.021.255.021.51.021.787v17.26h8.96V22.685c0-.298-.022-.575-.022-.83z" opacity=".1"/><path fill="#2366A9" d="M119.087 40.349h8.96v-17.26-.382c-3.03.106-6.017.213-8.96.298v17.344zm-13.299-17.025c.13.745.194 1.532.194 2.405 0 2.66-.623 4.767-1.87 6.363-1.245 1.575-2.9 2.362-4.984 2.362-2.062 0-3.716-.787-4.963-2.362-1.246-1.575-1.847-3.703-1.847-6.363 0-.83.064-1.596.193-2.32-3.072 0-6.123-.021-9.195-.042-.086.766-.15 1.532-.15 2.362 0 4.682 1.46 8.47 4.382 11.321 2.922 2.852 6.79 4.278 11.58 4.278 4.791 0 8.658-1.426 11.623-4.299 2.944-2.873 4.426-6.618 4.426-11.3 0-.894-.064-1.745-.172-2.575-3.115.064-6.166.106-9.217.17zm-35.77 8.491c-1.462.936-3.18 1.383-5.179 1.383-3.158 0-5.628-1.085-7.39-3.277-1.44-1.809-2.277-4.214-2.535-7.214a877.22 877.22 0 0 1-10.162-.383c.279 5.554 2.02 10.044 5.242 13.428 3.545 3.724 8.314 5.597 14.308 5.597 3.825 0 7.155-.83 10.033-2.511 2.88-1.681 5.264-4.192 7.176-7.555l-7.863-3.682c-.945 1.894-2.17 3.299-3.63 4.214z"/><path fill="#FFF" d="M20.367 41.306c1.998 0 3.889-.212 5.672-.617 1.783-.425 3.416-1.021 4.898-1.83a15.406 15.406 0 0 0 4.856 3.575c1.847.873 3.91 1.426 6.166 1.66l2.986-7.044c-1.547-.17-3.008-.532-4.383-1.128a14.554 14.554 0 0 1-3.76-2.383c1.29-1.703 2.235-3.618 2.858-5.746.494-1.702.773-3.596.88-5.64a928.392 928.392 0 0 1-10.118-.446c-.15 3.405-1.032 6.086-2.643 8.065-1.783 2.17-4.254 3.256-7.412 3.256-3.158 0-5.629-1.085-7.412-3.277-1.783-2.17-2.664-5.171-2.686-9.002-3.308-.17-6.681-.34-10.119-.51v.446c0 6.257 1.848 11.258 5.522 15.003 3.674 3.746 8.572 5.618 14.695 5.618z" opacity=".1"/></g><ellipse cx="154.364" cy="38.199" fill="#292952" rx="2.471" ry="2.447"/><path fill="#292952" fill-rule="nonzero" d="M191.854 19.153l5.084.946a5 5 0 0 1 4.085 4.893l.07 15.016h-9.24V19.153zm-21.227 21.409c-5.641 0-10.278-3.21-10.278-9.075v-.11c0-6.474 4.972-9.462 12.066-9.462 3.016 0 5.195.498 7.317 1.217v-.498c0-3.485-2.178-5.422-6.423-5.422-3.24 0-5.53.609-8.267 1.605l-2.123-6.419c3.296-1.438 6.535-2.379 11.619-2.379 4.636 0 7.987 1.217 10.11 3.32 2.234 2.213 3.24 5.478 3.24 9.461v17.208h-8.211V36.8c-2.067 2.269-4.916 3.763-9.05 3.763zm2.57-5.81c3.966 0 6.647-2.158 6.647-5.201v-1.494c-1.452-.664-3.351-1.107-5.418-1.107-3.631 0-5.865 1.439-5.865 4.095v.11c0 2.269 1.899 3.597 4.636 3.597z"/><path fill="#FFC52A" d="M191.854 9.364h9.239v8.512l-5.145-.948a5 5 0 0 1-4.094-4.917V9.364z"/><path fill="#292952" d="M147.055 59.618c-.55 0-1.011-.257-1.247-.697h-.058v.63H145V54h.78v2.193h.061c.21-.437.674-.7 1.214-.7 1 0 1.631.791 1.631 2.06 0 1.265-.634 2.065-1.63 2.065zm-.224-3.418c-.653 0-1.063.52-1.066 1.357.003.836.41 1.353 1.066 1.353.66 0 1.054-.51 1.054-1.357 0-.84-.395-1.353-1.054-1.353zm3.182 4.8c.805 0 1.178-.312 1.515-1.283L153 55.558h-.826l-.986 3.172h-.062l-.99-3.172h-.848l1.428 4.008-.058.195c-.134.403-.344.557-.714.557-.072 0-.192-.004-.253-.015v.679c.072.01.257.018.322.018z"/><g fill-rule="nonzero" transform="translate(158 47)"><path fill="#2B6CAD" d="M3.029 12.688L0 12.688 0 0.219 3.029 0.219z"/><path fill="#2B6CAD" d="M4.976 12.688V3.495h2.768v.854a3.42 3.42 0 0 1 1.208-.8c.445-.174.95-.268 1.507-.268.996 0 1.74.314 2.224.948.485.634.73 1.602.73 2.91v5.548h-2.768V7.274c0-.62-.106-1.074-.325-1.368-.22-.294-.564-.434-1.036-.434-.557 0-.949.133-1.188.407-.232.274-.352.734-.352 1.395v5.415H4.976zm10.483 0V5.341h-1.396V3.646h1.396c-.02-.189-.027-.33-.033-.411 0-.088-.007-.162-.007-.236 0-.983.237-1.69.705-2.127.467-.431 1.238-.653 2.305-.653.237 0 .474.013.718.04.243.027.493.074.757.142V2.34h-.461c-.507 0-.836.06-1.001.188-.165.128-.244.377-.244.76v.358h1.706v1.696h-1.7v7.346H15.46zm9.41.656c-1.49 0-2.693-.46-3.602-1.379-.909-.92-1.363-2.133-1.363-3.65 0-1.501.454-2.722 1.37-3.648.909-.92 2.112-1.386 3.596-1.386 1.504 0 2.713.46 3.622 1.386.91.926 1.364 2.14 1.364 3.649 0 1.502-.461 2.716-1.377 3.642-.909.926-2.112 1.386-3.61 1.386zm-2.118-5.028c0 .864.194 1.543.575 2.05.388.508.902.762 1.544.762.641 0 1.163-.254 1.55-.761.388-.508.582-1.194.582-2.044 0-.864-.194-1.544-.575-2.058-.388-.508-.902-.761-1.55-.761-.642 0-1.15.26-1.538.775-.394.507-.588 1.193-.588 2.037z"/><path fill="#228D45" d="M40.677 12.337a5.993 5.993 0 0 1-1.514.581 7.342 7.342 0 0 1-1.753.196c-1.893 0-3.407-.594-4.55-1.784-1.135-1.19-1.706-2.779-1.706-4.766 0-1.088.173-2.055.518-2.914a5.741 5.741 0 0 1 1.554-2.197A5.453 5.453 0 0 1 35.099.365C35.796.122 36.566 0 37.403 0c1.886 0 3.4.595 4.542 1.791 1.142 1.197 1.707 2.786 1.707 4.773 0 .831-.093 1.582-.286 2.258a5.725 5.725 0 0 1-.883 1.825c.359.318.744.568 1.162.757.419.19.87.304 1.355.358L44.077 14a5.426 5.426 0 0 1-1.906-.527 4.746 4.746 0 0 1-1.494-1.136zm-3.274-1.845c.983 0 1.746-.345 2.291-1.035.551-.69.823-1.65.823-2.886 0-1.237-.278-2.204-.83-2.894-.55-.696-1.315-1.04-2.29-1.04-.97 0-1.727.35-2.285 1.054-.558.703-.83 1.663-.83 2.886 0 1.224.279 2.184.83 2.88.558.69 1.321 1.035 2.29 1.035z"/></g></g></svg>